<?xml version="1.0" encoding="iso-8859-1"?>
<!-- Generator: Adobe Illustrator 19.0.0, SVG Export Plug-In . SVG Version: 6.00 Build 0)  -->
<svg version="1.1" id="Layer_1" xmlns="http://www.w3.org/2000/svg" xmlns:xlink="http://www.w3.org/1999/xlink" x="0px" y="0px"
	 viewBox="0 0 512 512" style="enable-background:new 0 0 512 512;" xml:space="preserve">
<path style="fill:#B27214;" d="M403.652,138.397l0.216-0.023l-8.683-72.343c-1.172-9.229,5.36-17.651,14.589-18.823
	c0.717-0.091,1.434-0.137,2.139-0.137c8.353,0,15.602,6.214,16.672,14.726l12.074,101.112c0.341,2.652,4.165,2.697,4.552,0.057
	l14.02-93.601c1.388-9.195,9.958-15.534,19.153-14.157c8.353,1.252,14.35,8.444,14.35,16.638c0,0.831-0.068,1.673-0.193,2.515
	l-13.679,91.303l7.226,0.728c11.483,1.149,19.38,12.04,16.934,23.318l-9.48,43.54c-2.413,13.804-9.298,25.89-19.039,34.857
	c-11.073,10.185-17.468,24.479-17.468,39.534v157.284H373.04V297.923c0-11.039-3.403-21.804-9.764-30.806
	c-9.821-13.918-15.409-28.189-16.08-46.806l-0.819-15.352l-5.963-40.923v-0.011c-0.319-9.286,6.942-17.07,16.228-17.412
	c7.169-0.25,13.451,4.006,16.091,10.242h0.011l-2.595-15.568c-0.33-9.298,6.93-17.104,16.228-17.434
	c0.205-0.011,0.41-0.011,0.603-0.011C395.436,123.841,402.537,130.123,403.652,138.397z"/>
<path style="fill:#995C0D;" d="M380.357,267.117c6.361,9.002,9.764,19.767,9.764,30.806v167.003H373.04V297.923
	c0-11.039-3.403-21.804-9.764-30.806c-9.821-13.918-15.409-28.189-16.08-46.806l-0.819-15.352l-5.963-40.923v-0.011
	c-0.319-9.286,6.942-17.07,16.228-17.412c3.334-0.114,6.464,0.74,9.138,2.322c-5.144,3.027-8.501,8.706-8.285,15.09v0.011
	l5.963,40.923l0.819,15.352C364.949,238.928,370.537,253.199,380.357,267.117z"/>
<path style="fill:#FFD3AE;" d="M304.907,213.539c2.64-6.225,8.922-10.481,16.08-10.231c9.286,0.341,16.547,8.125,16.228,17.412
	v0.011l-5.963,40.923l-0.819,15.352c-0.66,18.618-6.259,32.889-16.069,46.806c-4.359,6.157-7.329,13.144-8.763,20.484h-88.924
	c-2.982-7.34-7.591-14.009-13.554-19.494c-9.73-8.968-16.626-21.053-19.039-34.857l-9.48-43.54
	c-2.447-11.278,5.462-22.168,16.934-23.318l7.226-0.728h0.011l-13.679-91.303c-0.125-0.842-0.193-1.684-0.193-2.515
	c0-8.194,5.997-15.386,14.35-16.638c9.195-1.377,17.764,4.962,19.141,14.157l14.02,93.601c0.398,2.64,4.222,2.595,4.563-0.057
	l12.063-101.112c1.081-8.512,8.319-14.726,16.683-14.726c0.706,0,1.423,0.046,2.139,0.137c9.229,1.172,15.761,9.593,14.589,18.823
	l-8.683,72.343l0.205,0.023c1.127-8.273,8.216-14.555,16.672-14.555c0.205,0,0.41,0,0.615,0.011
	c9.298,0.33,16.558,8.137,16.228,17.434L304.907,213.539z"/>
<polygon style="fill:#F95428;" points="313.829,344.297 313.829,385.265 304.589,385.265 220.603,385.265 211.886,385.265 
	211.886,344.297 216.677,344.297 305.601,344.297 "/>
<rect x="220.603" y="385.262" style="fill:#FFD3AE;" width="83.985" height="79.661"/>
<path style="fill:#FFE8B0;" d="M72.002,152.03l-8.683-72.343c-1.172-9.229,5.36-17.651,14.578-18.823
	c0.717-0.091,1.434-0.137,2.139-0.137c8.364,0,15.614,6.214,16.683,14.726l12.074,101.112c0.33,2.652,4.154,2.697,4.552,0.057
	l14.02-93.601c1.377-9.195,9.958-15.534,19.153-14.157c8.353,1.252,14.35,8.444,14.35,16.638c0,0.831-0.068,1.673-0.193,2.515
	l-13.679,91.303l7.226,0.728c11.471,1.149,19.38,12.04,16.934,23.318l-9.48,43.54c-2.151,12.29-7.852,23.227-15.955,31.807
	c-9.195,9.73-15.613,21.645-18.606,34.47H81.652c-4.108-2.947-9.15-4.689-14.589-4.689c-13.827,0-25.036,11.209-25.036,25.036
	h-0.854v-20.484c0-11.995-3.824-23.602-10.606-33.48c-9.298-13.531-14.589-27.517-15.238-45.6l-0.819-15.352l-5.963-40.923v-0.011
	c-0.319-9.286,6.942-17.07,16.228-17.412c7.169-0.25,13.451,4.006,16.091,10.242h0.011l-2.595-15.568
	c-0.33-9.298,6.93-17.104,16.217-17.434c0.205-0.011,0.41-0.011,0.615-0.011c8.455,0,15.557,6.282,16.672,14.555L72.002,152.03z"/>
<path style="fill:#4D4D4D;" d="M81.652,313.184h45.464c-1.286,5.474-1.957,11.107-1.957,16.82v23.864H81.664
	c6.327-4.541,10.436-11.961,10.436-20.336C92.099,325.155,87.98,317.736,81.652,313.184z"/>
<path style="fill:#FFE8B0;" d="M125.159,353.867v111.058H41.173V333.531h0.854c0,13.827,11.209,25.036,25.036,25.036
	c5.451,0,10.492-1.741,14.601-4.7H125.159z"/>
<path style="fill:#2BA5F7;" d="M81.652,313.184c6.327,4.552,10.447,11.972,10.447,20.348c0,8.376-4.108,15.796-10.436,20.336
	c-4.108,2.959-9.15,4.7-14.601,4.7c-13.827,0-25.036-11.209-25.036-25.036s11.209-25.036,25.036-25.036
	C72.503,308.495,77.544,310.236,81.652,313.184z"/>
<path style="fill:#333333;" d="M506.687,169.239c-4.326-5.955-10.841-9.941-18.064-11.116l12.359-82.501
	c1.005-6.703-0.661-13.394-4.691-18.844c-4.029-5.45-9.938-9.004-16.641-10.008c-6.706-1.001-13.396,0.662-18.845,4.692
	c-5.45,4.03-9.003,9.939-10.007,16.642l-7.156,47.766l-6.582-55.146c-1.758-13.879-14.478-23.742-28.36-21.982
	c-6.723,0.851-12.713,4.271-16.864,9.626c-4.151,5.357-5.97,12.009-5.124,18.678l5.871,48.889c-2.091-0.475-4.272-0.692-6.511-0.61
	c-6.773,0.242-13.047,3.107-17.664,8.067c-3.907,4.196-6.211,9.469-6.689,15.092c-1.754-0.318-3.554-0.464-5.379-0.399
	c-13.961,0.5-24.93,12.263-24.452,26.224c0.007,0.184,0.019,0.369,0.038,0.553c0.014,0.137,0.03,0.275,0.049,0.407l5.23,35.891
	c-4.256-3.777-9.796-6.159-15.913-6.384c-1.82-0.064-3.617,0.082-5.369,0.403c-0.478-5.623-2.782-10.896-6.687-15.091
	c-4.619-4.961-10.891-7.825-17.664-8.067c-2.24-0.081-4.422,0.137-6.512,0.61l5.864-48.834c0.852-6.723-0.966-13.376-5.118-18.733
	c-4.151-5.357-10.141-8.775-16.864-9.626c-13.871-1.762-26.601,8.104-28.368,22.043l-6.574,55.082l-7.155-47.765
	c-2.072-13.836-15.01-23.401-28.852-21.333c-6.703,1.004-12.613,4.558-16.642,10.008c-4.03,5.45-5.696,12.141-4.691,18.844
	l12.359,82.502c-4.727,0.767-9.148,2.739-12.854,5.681l3.336-15.32c1.683-7.749-0.023-15.872-4.681-22.286
	c-4.324-5.955-10.838-9.939-18.061-11.115l12.359-82.501c1.005-6.703-0.661-13.396-4.691-18.844s-9.939-9.004-16.642-10.008
	c-13.843-2.069-26.779,7.497-28.852,21.334l-7.156,47.763l-6.582-55.142c-0.851-6.725-4.27-12.714-9.626-16.865
	c-5.357-4.153-12.012-5.971-18.733-5.118c-13.882,1.757-23.742,14.479-21.992,28.303l5.871,48.886
	c-2.089-0.473-4.271-0.688-6.511-0.607c-12.931,0.462-23.277,10.578-24.365,23.156c-1.75-0.316-3.546-0.461-5.367-0.395
	c-13.96,0.5-24.93,12.263-24.455,26.223c0.007,0.188,0.02,0.376,0.038,0.562c0.014,0.134,0.03,0.267,0.049,0.401l5.907,40.528
	l0.793,14.889c0.683,18.767,5.844,34.209,16.729,50.054c5.957,8.673,9.108,18.578,9.108,28.644v151.882
	c0,4.714,3.82,8.535,8.535,8.535s8.535-3.821,8.535-8.535V362.257c5.068,3.073,11.008,4.844,17.356,4.844
	c6.243,0,12.09-1.718,17.103-4.699h32.461v102.523c0,4.714,3.82,8.535,8.535,8.535c4.715,0,8.535-3.821,8.535-8.535V330.007
	c0-16.853,6.474-32.989,18.232-45.435c7.533-7.973,13.032-17.504,16.176-27.909l7.604,34.93
	c2.712,15.289,10.189,28.94,21.638,39.491c2.793,2.57,5.251,5.5,7.327,8.666c-0.832,1.317-1.32,2.873-1.32,4.546v40.968
	c0,4.714,3.82,8.535,8.535,8.535h0.182v71.126c0,4.714,3.82,8.535,8.535,8.535s8.535-3.821,8.535-8.535V393.8h66.915v71.126
	c0,4.714,3.82,8.535,8.535,8.535s8.535-3.821,8.535-8.535V393.8h0.699c4.715,0,8.535-3.821,8.535-8.535v-40.968
	c0-3.592-2.22-6.659-5.361-7.918c1.186-2.669,2.629-5.226,4.344-7.649c11.491-16.301,16.926-32.139,17.62-51.344l0.793-14.889
	l2.657-18.23c2.867,9.57,7.416,18.597,13.886,27.764c5.371,7.611,8.21,16.561,8.21,25.885v153.351c0,4.714,3.82,8.535,8.535,8.535
	s8.535-3.821,8.535-8.535V297.917c0-12.866-3.918-25.221-11.332-35.727c-9.606-13.612-13.949-26.229-14.519-42.188
	c-0.001-0.05-0.005-0.1-0.007-0.149l-0.819-15.353c-0.014-0.261-0.04-0.519-0.076-0.776l-5.885-40.38
	c0.049-4.398,3.565-8.039,8.009-8.198c3.132-0.105,6.092,1.623,7.577,4.362l3.846,23.126c0.694,4.175,4.311,7.136,8.41,7.136
	c0.464,0,0.937-0.038,1.41-0.117c4.65-0.774,7.793-5.17,7.019-9.82l-6.539-39.311c0.038-2.048,0.818-3.985,2.225-5.497
	c1.511-1.623,3.564-2.561,5.78-2.64c2.24-0.069,4.331,0.709,5.953,2.22c1.624,1.511,2.368,3.579,2.64,5.78
	c1.883,15.202,4.908,38.843,4.908,38.843c0.561,4.681,4.815,8.018,9.492,7.456c4.68-0.562,8.018-4.811,7.456-9.491L403.652,64.956
	c-0.279-2.2,0.315-4.377,1.675-6.129c1.358-1.753,3.318-2.871,5.518-3.15c4.543-0.572,8.705,2.652,9.273,7.132l12.077,101.177
	c0.687,5.427,5.155,9.41,10.626,9.473c0.043,0,0.085,0,0.129,0c5.412,0,9.905-3.864,10.709-9.229l14.021-93.598
	c0.329-2.193,1.492-4.126,3.274-5.445c1.783-1.317,3.975-1.865,6.167-1.535c2.194,0.329,4.128,1.491,5.445,3.274
	c1.318,1.783,1.864,3.973,1.535,6.166l-21.83,145.728c-0.699,4.662,2.514,9.007,7.176,9.706c0.429,0.064,0.855,0.094,1.276,0.094
	c4.154,0,7.797-3.038,8.429-7.272l6.941-46.336c2.737,0.492,5.123,1.974,6.78,4.256c1.83,2.52,2.473,5.583,1.812,8.626l-9.48,43.54
	c-0.025,0.115-0.048,0.231-0.068,0.346c-2.037,11.649-7.71,22.035-16.408,30.039c-12.857,11.833-20.232,28.533-20.232,45.821
	v143.627c0,4.714,3.82,8.535,8.535,8.535s8.535-3.821,8.535-8.535V307.641c0-12.527,5.366-24.65,14.721-33.259
	c11.439-10.527,18.917-24.177,21.632-39.482l9.444-43.375C513.049,183.776,511.344,175.653,506.687,169.239z M50.564,333.53
	c0-9.098,7.403-16.501,16.501-16.501s16.501,7.403,16.501,16.501s-7.403,16.501-16.501,16.501S50.564,342.628,50.564,333.53z
	 M98.489,345.331c1.384-3.673,2.147-7.65,2.147-11.802c0-4.156-0.765-8.136-2.151-11.811h18.567
	c-0.275,2.741-0.423,5.507-0.423,8.289v15.324H98.489z M162.816,201.552l-9.481,43.54c-0.025,0.115-0.048,0.231-0.068,0.347
	c-1.805,10.324-6.557,19.803-13.745,27.411c-8.715,9.226-15.097,20.086-18.881,31.798h-36.49c-5.008-2.975-10.85-4.69-17.086-4.69
	c-6.554,0-12.669,1.895-17.843,5.155c-1.308-10.741-5.255-21.116-11.621-30.38c-8.955-13.037-13.193-25.704-13.741-41.073
	c-0.001-0.05-0.003-0.1-0.007-0.15l-0.819-15.353c-0.014-0.261-0.04-0.519-0.076-0.776l-5.886-40.38
	c0.051-4.398,3.568-8.039,8.01-8.198c3.123-0.118,6.089,1.621,7.576,4.361l3.848,23.128c0.694,4.175,4.311,7.135,8.41,7.135
	c0.464,0,0.937-0.038,1.41-0.117c4.65-0.774,7.793-5.17,7.019-9.82l-6.539-39.309c0.081-4.373,3.582-7.98,8.004-8.138
	c2.227-0.076,4.331,0.709,5.954,2.22c1.623,1.511,2.561,3.563,2.639,5.78c0.035,0.975,4.908,38.843,4.908,38.843
	c0.561,4.681,4.812,8.016,9.492,7.456c4.68-0.562,8.018-4.812,7.456-9.491L71.782,78.613c-0.575-4.542,2.652-8.705,7.193-9.28
	c2.201-0.282,4.378,0.316,6.13,1.675c1.753,1.358,2.87,3.318,3.142,5.458l12.078,101.177c0.687,5.427,5.155,9.41,10.626,9.473
	c5.523,0.05,10.027-3.819,10.836-9.228l14.021-93.597c0.679-4.528,4.924-7.662,9.441-6.981c2.194,0.329,4.128,1.492,5.445,3.274
	c1.319,1.783,1.864,3.973,1.536,6.166L130.4,232.478c-0.699,4.662,2.514,9.007,7.176,9.706c0.429,0.064,0.855,0.094,1.276,0.094
	c4.154,0,7.797-3.038,8.429-7.272l6.942-46.336c2.737,0.492,5.123,1.974,6.78,4.256C162.833,195.445,163.478,198.51,162.816,201.552
	z M305.291,352.832v23.898h-84.866v-23.898H305.291z M322.809,260.423c-0.036,0.257-0.064,0.517-0.076,0.776l-0.819,15.352
	c-0.003,0.05-0.006,0.101-0.007,0.152c-0.566,15.94-4.907,28.558-14.505,42.177c-3.686,5.206-6.491,10.866-8.401,16.881H222.1
	c-3.356-6.424-7.836-12.313-13.188-17.236c-8.706-8.023-14.383-18.415-16.417-30.05c-0.02-0.116-0.042-0.231-0.068-0.346
	l-9.477-43.535c-0.661-3.049-0.017-6.116,1.816-8.636c1.657-2.279,4.042-3.759,6.779-4.249l6.941,46.335
	c0.634,4.233,4.276,7.272,8.429,7.272c0.421,0,0.847-0.031,1.276-0.094c4.662-0.699,7.875-5.044,7.176-9.706l-21.83-145.728
	c-0.328-2.193,0.216-4.384,1.535-6.166c1.319-1.782,3.252-2.945,5.447-3.274c4.519-0.679,8.762,2.452,9.441,6.981l14.02,93.597
	c0.803,5.367,5.295,9.229,10.709,9.229c0.042,0,0.085,0,0.129,0c5.47-0.063,9.938-4.046,10.634-9.533l12.062-101.055
	c0.576-4.541,4.734-7.765,9.28-7.193c2.2,0.279,4.159,1.397,5.518,3.15c1.359,1.754,1.954,3.93,1.668,6.185l-13.471,112.182
	c-0.562,4.68,2.776,8.93,7.456,9.491c4.67,0.562,8.93-2.776,9.492-7.456c0,0,2.771-21.647,4.908-38.843
	c0.564-4.544,4.011-8.139,8.595-8c2.216,0.08,4.269,1.017,5.779,2.64c1.407,1.511,2.187,3.448,2.225,5.497l-6.539,39.311
	c-0.774,4.65,2.369,9.046,7.019,9.82c0.475,0.079,0.946,0.117,1.41,0.117c4.099,0,7.715-2.96,8.41-7.136l3.843-23.106
	c1.474-2.748,4.428-4.485,7.571-4.386c4.447,0.164,7.967,3.81,8.016,8.21L322.809,260.423z"/>
<g>
</g>
<g>
</g>
<g>
</g>
<g>
</g>
<g>
</g>
<g>
</g>
<g>
</g>
<g>
</g>
<g>
</g>
<g>
</g>
<g>
</g>
<g>
</g>
<g>
</g>
<g>
</g>
<g>
</g>
</svg>
