<svg
   width="375pt"
   height="374.999991pt"
   viewBox="0 0 375 374.999991"
   version="1.2"
   id="svg206"
   sodipodi:docname="watermation-logo.svg"
   inkscape:version="1.1 (c4e8f9ed74, 2021-05-24)"
   xmlns:inkscape="http://www.inkscape.org/namespaces/inkscape"
   xmlns:sodipodi="http://sodipodi.sourceforge.net/DTD/sodipodi-0.dtd"
   xmlns="http://www.w3.org/2000/svg"
   xmlns:svg="http://www.w3.org/2000/svg">
  <path
       id="path195"
       style="color:#FFFBFA;fill:#FFFBFA;stroke-width:1.33333;-inkscape-stroke:none"
       d="M 251.0625 18.921875 C 246.88542 18.921875 242.70377 22.130208 239.49023 28.546875 L 156.86523 161.27148 L 144.45898 151.32227 C 139.4694 146.36913 132.02018 147.59831 128.29102 151.32227 L 99.71875 179.89648 C 95.994793 183.62044 94.765626 191.07227 99.71875 196.02539 L 110.89648 209.69727 C 113.39128 212.19205 113.39128 218.37957 110.89648 222.10352 C 104.71419 233.31706 99.718098 245.72397 95.994141 259.39062 C 94.764974 264.34896 91.042318 268.07227 86.083984 268.07227 L 68.6875 269.30273 C 62.468749 269.30273 57.509766 275.52539 57.509766 281.74414 L 57.509766 321.49414 C 57.509766 327.68165 62.468749 332.63476 68.6875 333.90039 L 86.083984 335.13086 C 91.042318 335.13086 94.764974 338.85416 95.994141 343.84375 C 99.718098 356.25 104.71419 368.6569 110.89648 381.09961 C 113.39128 384.82357 113.38997 391.01041 109.66602 394.73438 L 98.490234 408.40625 C 94.766276 413.36458 94.765626 419.58399 99.71875 424.53711 L 127.0625 451.88086 C 132.02083 456.83919 138.24024 456.83855 143.19336 453.10938 L 156.86523 441.9375 C 160.59439 438.20834 166.77669 438.20832 170.50586 440.67188 C 181.71419 446.89062 194.11914 451.87957 207.79102 455.60352 C 212.74414 456.8379 216.47461 460.56249 216.47461 465.51562 L 217.70312 482.91602 C 217.70312 489.13476 223.92188 494.08789 230.14062 494.08789 L 269.89062 494.08789 C 276.07812 494.08789 281.03125 489.13476 282.29688 482.91602 L 283.52539 465.51562 C 283.52539 460.5625 287.25457 456.8379 292.24414 455.60352 C 304.65039 451.87957 317.05665 446.89061 329.49414 440.67188 C 334.45247 438.20833 339.40561 438.20834 343.13477 441.9375 L 356.80664 453.10938 C 361.75976 456.83855 367.97917 456.83919 372.9375 451.88086 L 400.24414 424.53711 C 405.23373 419.58399 405.23373 413.36458 401.50977 408.40625 L 390.33398 394.73438 C 386.61002 391.0104 386.60873 384.82357 389.10352 381.09961 C 395.28581 369.89128 400.24479 357.48438 403.96875 343.84375 C 405.23438 338.85416 408.95768 335.13086 413.91602 335.13086 L 431.3125 333.90039 C 437.50001 332.63476 442.49023 327.68165 442.49023 321.49414 L 442.49023 281.74414 C 442.49023 275.52539 437.50001 270.56836 431.3125 269.30273 L 406.46289 266.84375 C 402.73893 250.67708 397.78581 235.7754 389.10352 222.10352 C 386.60873 218.37957 386.61002 212.19271 390.33398 208.46875 L 401.50977 194.79688 C 405.23373 189.84374 405.23373 183.61914 400.24414 178.66602 L 372.9375 151.32227 C 367.97917 146.36913 361.75976 146.36979 356.80664 150.09375 L 343.13477 161.27148 L 262.63477 28.546875 C 259.42123 22.130208 255.24479 18.921875 251.0625 18.921875 z M 250.63672 132.99414 C 253.14385 132.99414 255.64783 134.91713 257.57422 138.76367 L 305.83008 218.32812 L 314.02734 211.62695 C 316.99656 209.39457 320.72493 209.39407 323.69727 212.36328 L 340.06641 228.75586 C 343.05749 231.72507 343.05659 235.45655 340.82422 238.42578 L 334.125 246.62109 C 331.89263 248.85347 331.89119 252.56255 333.38672 254.79492 C 338.59143 262.99071 341.56058 271.92391 343.79297 281.61523 L 358.68945 283.08789 C 362.39863 283.8466 365.39062 286.81897 365.39062 290.54688 L 365.39062 314.375 C 365.39062 318.08419 362.39863 321.05381 358.68945 321.8125 L 348.26172 322.55078 C 345.28937 322.55078 343.05752 324.78236 342.29883 327.77344 C 340.06645 335.95049 337.09277 343.38844 333.38672 350.10742 C 331.89119 352.3398 331.89263 356.04888 334.125 358.28125 L 340.82422 366.47656 C 343.05659 369.4489 343.05749 373.17727 340.06641 376.14648 L 323.69727 392.53711 C 320.72493 395.50944 316.99656 395.50893 314.02734 393.27344 L 305.83008 386.57617 C 303.59458 384.34068 300.62663 384.34156 297.6543 385.81836 C 290.19848 389.54627 282.76131 392.53716 275.32422 394.76953 C 272.33315 395.50949 270.09766 397.74172 270.09766 400.71094 L 269.36133 411.14258 C 268.60263 414.87048 265.63301 417.83984 261.92383 417.83984 L 238.0957 417.83984 C 234.3678 417.83984 230.63867 414.87048 230.63867 411.14258 L 229.90234 400.71094 C 229.90234 397.74172 227.66648 395.50949 224.69727 394.76953 C 216.50148 392.53716 209.06468 389.54627 202.3457 385.81836 C 200.1102 384.34156 196.40542 384.34068 194.16992 386.57617 L 185.97266 393.27344 C 183.00344 395.50893 179.27507 395.50944 176.30273 392.53711 L 159.91211 376.14648 C 156.94288 373.17727 156.94341 369.4489 159.17578 366.47656 L 165.875 358.28125 C 168.10737 356.04888 168.10883 352.3398 166.61328 350.10742 C 162.90724 342.64846 159.91206 335.21053 157.67969 327.77344 C 156.94285 324.78236 154.71061 322.55078 151.73828 322.55078 L 141.31055 321.8125 C 137.58263 321.05381 134.60938 318.08419 134.60938 314.375 L 134.60938 290.54688 C 134.60937 286.81897 137.58263 283.08789 141.31055 283.08789 L 151.73828 282.35156 C 154.71061 282.35156 156.94285 280.11883 157.67969 277.14648 C 159.91206 268.95383 162.90724 261.51703 166.61328 254.79492 C 168.10883 252.56255 168.10883 248.85296 166.61328 247.35742 L 159.91211 239.16211 C 156.94288 236.1929 157.67974 231.72456 159.91211 229.49219 L 177.03906 212.36328 C 179.27456 210.13091 183.74134 209.39407 186.73242 212.36328 L 194.16992 218.32812 L 243.69922 138.76367 C 245.62562 134.91713 248.13272 132.99414 250.63672 132.99414 z "
       transform="scale(0.75)" />
</svg>
