<?xml version="1.0" encoding="UTF-8"?>
<svg xmlns="http://www.w3.org/2000/svg" xmlns:xlink="http://www.w3.org/1999/xlink" width="375pt" height="374.999991pt" viewBox="0 0 375 374.999991" version="1.2">
<defs>
<clipPath id="clip1">
  <path d="M 43.132812 81.835938 L 331.867188 81.835938 L 331.867188 370.566406 L 43.132812 370.566406 Z M 43.132812 81.835938 "/>
</clipPath>
<clipPath id="clip2">
  <path d="M 63.617188 6 L 311.925781 6 L 311.925781 350.910156 L 63.617188 350.910156 Z M 63.617188 6 "/>
</clipPath>
<clipPath id="clip3">
  <path d="M 119 91.941406 L 256.140625 91.941406 L 256.140625 305.601562 L 119 305.601562 Z M 119 91.941406 "/>
</clipPath>
<clipPath id="clip4">
  <path d="M 102.289062 140.992188 L 272.640625 140.992188 L 272.640625 311.34375 L 102.289062 311.34375 Z M 102.289062 140.992188 "/>
</clipPath>
</defs>
<g id="surface1">
<g clip-path="url(#clip1)" clip-rule="nonzero">
<path style=" stroke:none;fill-rule:nonzero;fill:rgb(0%,0%,0%);fill-opacity:1;" d="M 243.378906 226.203125 C 243.378906 256.9375 218.234375 282.082031 187.5 282.082031 C 156.765625 282.082031 131.621094 256.9375 131.621094 226.203125 C 131.621094 195.46875 156.765625 170.320312 187.5 170.320312 C 218.234375 170.320312 243.378906 195.46875 243.378906 226.203125 Z M 331.867188 241.121094 L 331.867188 211.308594 C 331.867188 206.644531 328.125 202.925781 323.484375 201.976562 L 304.847656 200.132812 C 302.054688 188.007812 298.339844 176.832031 291.828125 166.578125 C 289.957031 163.785156 289.957031 159.144531 292.75 156.351562 L 301.132812 146.097656 C 303.925781 142.382812 303.925781 137.714844 300.183594 134 L 279.703125 113.492188 C 275.984375 109.777344 271.320312 109.777344 267.605469 112.570312 L 257.351562 120.953125 C 254.554688 123.746094 249.917969 123.746094 247.121094 121.875 C 238.714844 117.234375 229.410156 113.492188 219.183594 110.699219 C 215.441406 109.777344 212.644531 106.980469 212.644531 103.265625 L 211.722656 90.21875 C 211.722656 85.550781 207.058594 81.835938 202.417969 81.835938 L 172.605469 81.835938 C 167.941406 81.835938 164.226562 85.550781 163.277344 90.21875 L 162.355469 103.265625 C 162.355469 106.980469 159.558594 109.777344 155.84375 110.699219 C 146.511719 113.492188 137.207031 117.234375 127.878906 121.875 C 125.082031 123.746094 120.445312 123.746094 117.648438 120.953125 L 108.34375 113.492188 C 104.601562 109.777344 99.015625 110.699219 96.21875 113.492188 L 74.789062 134.921875 C 71.996094 137.714844 71.074219 143.304688 74.789062 147.019531 L 83.171875 157.273438 C 85.042969 159.144531 85.042969 163.785156 83.171875 166.578125 C 78.535156 174.988281 74.789062 184.292969 71.996094 194.542969 C 71.074219 198.261719 68.28125 201.054688 64.5625 201.054688 L 51.515625 201.976562 C 46.851562 201.976562 43.132812 206.644531 43.132812 211.308594 L 43.132812 241.121094 C 43.132812 245.761719 46.851562 249.476562 51.515625 250.425781 L 64.5625 251.347656 C 68.28125 251.347656 71.074219 254.140625 71.996094 257.882812 C 74.789062 267.1875 78.535156 276.492188 83.171875 285.824219 C 85.042969 288.617188 85.042969 293.257812 82.25 296.050781 L 73.867188 306.304688 C 71.074219 310.023438 71.074219 314.6875 74.789062 318.402344 L 95.296875 338.910156 C 99.015625 342.628906 103.679688 342.628906 107.394531 339.832031 L 117.648438 331.453125 C 120.445312 328.65625 125.082031 328.65625 127.878906 330.503906 C 136.285156 335.167969 145.589844 338.910156 155.84375 341.703125 C 159.558594 342.628906 162.355469 345.421875 162.355469 349.136719 L 163.277344 362.1875 C 163.277344 366.851562 167.941406 370.566406 172.605469 370.566406 L 202.417969 370.566406 C 207.058594 370.566406 210.773438 366.851562 211.722656 362.1875 L 212.644531 349.136719 C 212.644531 345.421875 215.441406 342.628906 219.183594 341.703125 C 228.488281 338.910156 237.792969 335.167969 247.121094 330.503906 C 250.839844 328.65625 254.554688 328.65625 257.351562 331.453125 L 267.605469 339.832031 C 271.320312 342.628906 275.984375 342.628906 279.703125 338.910156 L 300.183594 318.402344 C 303.925781 314.6875 303.925781 310.023438 301.132812 306.304688 L 292.75 296.050781 C 289.957031 293.257812 289.957031 288.617188 291.828125 285.824219 C 296.464844 277.417969 300.183594 268.113281 302.976562 257.882812 C 303.925781 254.140625 306.71875 251.347656 310.4375 251.347656 L 323.484375 250.425781 C 328.125 249.476562 331.867188 245.761719 331.867188 241.121094 "/>
</g>
<g clip-path="url(#clip2)" clip-rule="nonzero">
<path style=" stroke:none;fill-rule:nonzero;fill:rgb(0%,0%,0%);fill-opacity:1;" d="M 193.527344 9.058594 C 190.878906 5.699219 185.207031 5.699219 182.558594 9.058594 C 177.699219 15.191406 63.695312 160.15625 63.695312 226.5625 C 63.695312 295.046875 119.476562 350.765625 188.042969 350.765625 C 256.605469 350.765625 312.390625 295.046875 312.390625 226.5625 C 312.390625 160.15625 198.382812 15.195312 193.527344 9.058594 Z M 188.042969 336.800781 C 127.183594 336.800781 77.675781 287.347656 77.675781 226.5625 C 77.675781 172.816406 165.035156 54.921875 188.042969 24.808594 C 211.050781 54.921875 298.410156 172.816406 298.410156 226.5625 C 298.410156 287.347656 248.898438 336.800781 188.042969 336.800781 Z M 188.042969 336.800781 "/>
</g>
<path style=" stroke:none;fill-rule:nonzero;fill:rgb(0%,0%,0%);fill-opacity:1;" d="M 249.492188 219.59375 C 245.632812 219.59375 242.5 222.722656 242.5 226.574219 C 242.5 256.558594 218.070312 280.960938 188.042969 280.960938 C 184.183594 280.960938 181.050781 284.085938 181.050781 287.941406 C 181.050781 291.796875 184.183594 294.925781 188.042969 294.925781 C 225.78125 294.925781 256.480469 264.261719 256.480469 226.574219 C 256.480469 222.722656 253.347656 219.59375 249.492188 219.59375 Z M 249.492188 219.59375 "/>
<path style=" stroke:none;fill-rule:nonzero;fill:rgb(0%,0%,0%);fill-opacity:1;" d="M 262.554688 131.648438 L 196.976562 21.410156 C 194.566406 16.597656 191.433594 14.191406 188.296875 14.191406 C 185.164062 14.191406 182.027344 16.597656 179.617188 21.410156 L 112.109375 131.648438 C 107.289062 141.035156 112.109375 148.976562 122.71875 148.976562 L 251.945312 148.976562 C 262.554688 148.976562 267.378906 141.277344 262.554688 131.648438 Z M 262.554688 131.648438 "/>
<path style=" stroke:none;fill-rule:nonzero;fill:rgb(0%,0%,0%);fill-opacity:1;" d="M 187.5 131.640625 C 185.953125 131.640625 184.40625 131.679688 182.859375 131.753906 C 181.316406 131.832031 179.773438 131.945312 178.230469 132.097656 C 176.691406 132.25 175.15625 132.4375 173.625 132.664062 C 172.09375 132.890625 170.570312 133.15625 169.050781 133.457031 C 167.535156 133.761719 166.023438 134.101562 164.523438 134.476562 C 163.023438 134.851562 161.53125 135.265625 160.050781 135.714844 C 158.570312 136.164062 157.101562 136.648438 155.644531 137.167969 C 154.1875 137.691406 152.742188 138.246094 151.3125 138.839844 C 149.882812 139.433594 148.46875 140.058594 147.070312 140.71875 C 145.671875 141.382812 144.289062 142.078125 142.925781 142.808594 C 141.558594 143.535156 140.214844 144.300781 138.886719 145.09375 C 137.558594 145.890625 136.253906 146.71875 134.964844 147.578125 C 133.679688 148.4375 132.414062 149.328125 131.171875 150.25 C 129.929688 151.171875 128.707031 152.125 127.511719 153.105469 C 126.316406 154.085938 125.144531 155.097656 123.996094 156.136719 C 122.851562 157.175781 121.730469 158.242188 120.636719 159.335938 C 119.542969 160.433594 118.476562 161.550781 117.4375 162.699219 C 116.398438 163.847656 115.386719 165.015625 114.402344 166.214844 C 113.421875 167.410156 112.472656 168.628906 111.550781 169.871094 C 110.628906 171.117188 109.734375 172.378906 108.875 173.667969 C 108.015625 174.953125 107.1875 176.261719 106.394531 177.589844 C 105.597656 178.914062 104.835938 180.261719 104.105469 181.625 C 103.375 182.992188 102.679688 184.375 102.019531 185.773438 C 101.355469 187.171875 100.730469 188.585938 100.136719 190.015625 C 99.546875 191.445312 98.988281 192.886719 98.46875 194.34375 C 97.945312 195.800781 97.460938 197.273438 97.011719 198.753906 C 96.5625 200.234375 96.148438 201.722656 95.773438 203.226562 C 95.398438 204.726562 95.058594 206.234375 94.757812 207.753906 C 94.457031 209.273438 94.191406 210.796875 93.964844 212.328125 C 93.738281 213.859375 93.546875 215.394531 93.394531 216.933594 C 93.242188 218.472656 93.128906 220.015625 93.054688 221.5625 C 92.976562 223.109375 92.941406 224.652344 92.941406 226.203125 C 92.941406 227.75 92.976562 229.296875 93.054688 230.839844 C 93.128906 232.386719 93.242188 233.929688 93.394531 235.46875 C 93.546875 237.011719 93.738281 238.546875 93.964844 240.078125 C 94.191406 241.605469 94.457031 243.132812 94.757812 244.648438 C 95.058594 246.167969 95.398438 247.675781 95.773438 249.179688 C 96.148438 250.679688 96.5625 252.171875 97.011719 253.652344 C 97.460938 255.132812 97.945312 256.601562 98.46875 258.058594 C 98.988281 259.515625 99.546875 260.957031 100.136719 262.386719 C 100.730469 263.816406 101.355469 265.230469 102.019531 266.632812 C 102.679688 268.03125 103.375 269.410156 104.105469 270.777344 C 104.835938 272.140625 105.597656 273.488281 106.394531 274.816406 C 107.1875 276.140625 108.015625 277.449219 108.875 278.734375 C 109.734375 280.023438 110.628906 281.289062 111.550781 282.53125 C 112.472656 283.773438 113.421875 284.992188 114.402344 286.191406 C 115.386719 287.386719 116.398438 288.558594 117.4375 289.703125 C 118.476562 290.851562 119.542969 291.972656 120.636719 293.066406 C 121.730469 294.160156 122.851562 295.226562 123.996094 296.265625 C 125.144531 297.304688 126.316406 298.316406 127.511719 299.296875 C 128.707031 300.277344 129.929688 301.230469 131.171875 302.152344 C 132.414062 303.074219 133.679688 303.964844 134.964844 304.824219 C 136.253906 305.683594 137.558594 306.511719 138.886719 307.308594 C 140.214844 308.105469 141.558594 308.867188 142.925781 309.597656 C 144.289062 310.324219 145.671875 311.019531 147.070312 311.683594 C 148.46875 312.34375 149.882812 312.972656 151.3125 313.5625 C 152.742188 314.15625 154.1875 314.710938 155.644531 315.234375 C 157.101562 315.753906 158.570312 316.242188 160.050781 316.691406 C 161.53125 317.140625 163.023438 317.550781 164.523438 317.925781 C 166.023438 318.304688 167.535156 318.644531 169.050781 318.945312 C 170.570312 319.246094 172.09375 319.511719 173.625 319.738281 C 175.15625 319.964844 176.691406 320.15625 178.230469 320.304688 C 179.773438 320.457031 181.316406 320.570312 182.859375 320.648438 C 184.40625 320.722656 185.953125 320.761719 187.5 320.761719 C 189.046875 320.761719 190.59375 320.722656 192.140625 320.648438 C 193.683594 320.570312 195.226562 320.457031 196.769531 320.304688 C 198.308594 320.15625 199.84375 319.964844 201.375 319.738281 C 202.90625 319.511719 204.429688 319.246094 205.949219 318.945312 C 207.464844 318.644531 208.976562 318.304688 210.476562 317.925781 C 211.976562 317.550781 213.46875 317.140625 214.949219 316.691406 C 216.429688 316.242188 217.898438 315.753906 219.355469 315.234375 C 220.8125 314.710938 222.257812 314.15625 223.6875 313.5625 C 225.117188 312.972656 226.53125 312.34375 227.929688 311.683594 C 229.328125 311.019531 230.710938 310.324219 232.074219 309.597656 C 233.441406 308.867188 234.785156 308.105469 236.113281 307.308594 C 237.441406 306.511719 238.746094 305.683594 240.035156 304.824219 C 241.320312 303.964844 242.585938 303.074219 243.828125 302.152344 C 245.070312 301.230469 246.292969 300.277344 247.488281 299.296875 C 248.683594 298.316406 249.855469 297.304688 251.003906 296.265625 C 252.148438 295.226562 253.269531 294.160156 254.363281 293.066406 C 255.457031 291.972656 256.523438 290.851562 257.5625 289.703125 C 258.601562 288.558594 259.613281 287.386719 260.59375 286.191406 C 261.578125 284.992188 262.527344 283.773438 263.449219 282.53125 C 264.371094 281.289062 265.265625 280.023438 266.125 278.734375 C 266.984375 277.449219 267.8125 276.140625 268.605469 274.816406 C 269.402344 273.488281 270.164062 272.140625 270.894531 270.777344 C 271.625 269.410156 272.320312 268.03125 272.980469 266.632812 C 273.644531 265.230469 274.269531 263.816406 274.863281 262.386719 C 275.453125 260.957031 276.011719 259.515625 276.53125 258.058594 C 277.054688 256.601562 277.539062 255.132812 277.988281 253.652344 C 278.4375 252.171875 278.851562 250.679688 279.226562 249.179688 C 279.601562 247.675781 279.941406 246.167969 280.242188 244.648438 C 280.542969 243.132812 280.808594 241.605469 281.035156 240.078125 C 281.261719 238.546875 281.453125 237.011719 281.605469 235.46875 C 281.757812 233.929688 281.871094 232.386719 281.945312 230.839844 C 282.023438 229.296875 282.058594 227.75 282.058594 226.203125 C 282.058594 224.652344 282.023438 223.109375 281.945312 221.5625 C 281.871094 220.015625 281.757812 218.472656 281.605469 216.933594 C 281.453125 215.394531 281.261719 213.859375 281.035156 212.328125 C 280.808594 210.796875 280.542969 209.273438 280.242188 207.753906 C 279.941406 206.234375 279.601562 204.726562 279.226562 203.226562 C 278.851562 201.722656 278.4375 200.234375 277.988281 198.753906 C 277.539062 197.273438 277.054688 195.800781 276.53125 194.34375 C 276.011719 192.886719 275.453125 191.445312 274.863281 190.015625 C 274.269531 188.585938 273.644531 187.171875 272.980469 185.773438 C 272.320312 184.375 271.625 182.992188 270.894531 181.625 C 270.164062 180.261719 269.402344 178.914062 268.605469 177.589844 C 267.8125 176.261719 266.984375 174.953125 266.125 173.667969 C 265.265625 172.378906 264.371094 171.117188 263.449219 169.871094 C 262.527344 168.628906 261.578125 167.410156 260.59375 166.214844 C 259.613281 165.015625 258.601562 163.847656 257.5625 162.699219 C 256.523438 161.550781 255.457031 160.433594 254.363281 159.335938 C 253.269531 158.242188 252.148438 157.175781 251.003906 156.136719 C 249.855469 155.097656 248.683594 154.085938 247.488281 153.105469 C 246.292969 152.125 245.070312 151.171875 243.828125 150.25 C 242.585938 149.328125 241.320312 148.4375 240.035156 147.578125 C 238.746094 146.71875 237.441406 145.890625 236.113281 145.09375 C 234.785156 144.300781 233.441406 143.535156 232.074219 142.808594 C 230.710938 142.078125 229.328125 141.382812 227.929688 140.71875 C 226.53125 140.058594 225.117188 139.433594 223.6875 138.839844 C 222.257812 138.246094 220.8125 137.691406 219.355469 137.167969 C 217.898438 136.648438 216.429688 136.164062 214.949219 135.714844 C 213.46875 135.265625 211.976562 134.851562 210.476562 134.476562 C 208.976562 134.101562 207.464844 133.761719 205.949219 133.457031 C 204.429688 133.15625 202.90625 132.890625 201.375 132.664062 C 199.84375 132.4375 198.308594 132.25 196.769531 132.097656 C 195.226562 131.945312 193.683594 131.832031 192.140625 131.753906 C 190.59375 131.679688 189.046875 131.640625 187.5 131.640625 Z M 187.5 131.640625 "/>
<g clip-path="url(#clip3)" clip-rule="nonzero">
<path style=" stroke:none;fill-rule:nonzero;fill:rgb(100%,100%,100%);fill-opacity:1;" d="M 236.675781 177.113281 L 187.5625 91.945312 L 138.433594 177.113281 C 131.371094 188.71875 119.007812 216.898438 119.007812 231.804688 C 119.007812 272.570312 149.703125 305.601562 187.5625 305.601562 C 225.433594 305.601562 256.128906 272.570312 256.128906 231.804688 C 256.128906 216.898438 243.738281 188.71875 236.675781 177.113281 Z M 236.675781 177.113281 "/>
</g>
<g clip-path="url(#clip4)" clip-rule="nonzero">
<path style=" stroke:none;fill-rule:nonzero;fill:rgb(100%,100%,100%);fill-opacity:1;" d="M 220.433594 226.167969 C 220.433594 244.300781 205.597656 259.136719 187.464844 259.136719 C 169.332031 259.136719 154.496094 244.300781 154.496094 226.167969 C 154.496094 208.035156 169.332031 193.199219 187.464844 193.199219 C 205.597656 193.199219 220.433594 208.035156 220.433594 226.167969 Z M 272.640625 234.96875 L 272.640625 217.378906 C 272.640625 214.628906 270.433594 212.433594 267.695312 211.875 L 256.703125 210.785156 C 255.054688 203.632812 252.859375 197.039062 249.019531 190.988281 C 247.914062 189.339844 247.914062 186.605469 249.5625 184.957031 L 254.507812 178.90625 C 256.15625 176.714844 256.15625 173.960938 253.949219 171.769531 L 241.863281 159.667969 C 239.671875 157.476562 236.917969 157.476562 234.726562 159.125 L 228.675781 164.070312 C 227.027344 165.71875 224.292969 165.71875 222.644531 164.613281 C 217.683594 161.878906 212.191406 159.667969 206.160156 158.019531 C 203.949219 157.476562 202.300781 155.828125 202.300781 153.632812 L 201.757812 145.9375 C 201.757812 143.183594 199.003906 140.992188 196.269531 140.992188 L 178.679688 140.992188 C 175.925781 140.992188 173.734375 143.183594 173.175781 145.9375 L 172.628906 153.632812 C 172.628906 155.828125 170.980469 157.476562 168.789062 158.019531 C 163.28125 159.667969 157.792969 161.878906 152.289062 164.613281 C 150.640625 165.71875 147.902344 165.71875 146.253906 164.070312 L 140.765625 159.667969 C 138.554688 157.476562 135.257812 158.019531 133.609375 159.667969 L 120.96875 172.3125 C 119.320312 173.960938 118.773438 177.257812 120.96875 179.449219 L 125.914062 185.5 C 127.015625 186.605469 127.015625 189.339844 125.914062 190.988281 C 123.175781 195.949219 120.96875 201.441406 119.320312 207.488281 C 118.773438 209.683594 117.125 211.332031 114.933594 211.332031 L 107.234375 211.875 C 104.484375 211.875 102.289062 214.628906 102.289062 217.378906 L 102.289062 234.96875 C 102.289062 237.707031 104.484375 239.898438 107.234375 240.460938 L 114.933594 241.003906 C 117.125 241.003906 118.773438 242.652344 119.320312 244.859375 C 120.96875 250.351562 123.175781 255.839844 125.914062 261.34375 C 127.015625 262.992188 127.015625 265.730469 125.367188 267.378906 L 120.421875 273.429688 C 118.773438 275.621094 118.773438 278.375 120.96875 280.566406 L 133.066406 292.664062 C 135.257812 294.859375 138.011719 294.859375 140.203125 293.210938 L 146.253906 288.265625 C 147.902344 286.617188 150.640625 286.617188 152.289062 287.707031 C 157.25 290.457031 162.738281 292.664062 168.789062 294.3125 C 170.980469 294.859375 172.628906 296.507812 172.628906 298.699219 L 173.175781 306.398438 C 173.175781 309.152344 175.925781 311.34375 178.679688 311.34375 L 196.269531 311.34375 C 199.003906 311.34375 201.199219 309.152344 201.757812 306.398438 L 202.300781 298.699219 C 202.300781 296.507812 203.949219 294.859375 206.160156 294.3125 C 211.648438 292.664062 217.136719 290.457031 222.644531 287.707031 C 224.835938 286.617188 227.027344 286.617188 228.675781 288.265625 L 234.726562 293.210938 C 236.917969 294.859375 239.671875 294.859375 241.863281 292.664062 L 253.949219 280.566406 C 256.15625 278.375 256.15625 275.621094 254.507812 273.429688 L 249.5625 267.378906 C 247.914062 265.730469 247.914062 262.992188 249.019531 261.34375 C 251.757812 256.382812 253.949219 250.894531 255.597656 244.859375 C 256.15625 242.652344 257.804688 241.003906 260 241.003906 L 267.695312 240.460938 C 270.433594 239.898438 272.640625 237.707031 272.640625 234.96875 "/>
</g>
</g>
</svg>
